<svg height="24" viewBox="0 0 24 24" width="24" xmlns="http://www.w3.org/2000/svg" xmlns:xlink="http://www.w3.org/1999/xlink"><radialGradient id="radialGradient3200" cx="12" cy="12" gradientUnits="userSpaceOnUse" r="12"><stop offset="0" stop-color="#00e6f2"/><stop offset="1" stop-color="#76c4dc"/></radialGradient><g fill="url(#radialGradient3200)"><path d="m12 19a1 1 0 0 0 -1 1v3a1 1 0 0 0 1 1 1 1 0 0 0 1-1v-3a1 1 0 0 0 -1-1zm0 1v3m-11-12a1 1 0 0 0 -1 1 1 1 0 0 0 1 1h3a1 1 0 0 0 1-1 1 1 0 0 0 -1-1zm3 1h-3m2.515625-8.484375a1 1 0 0 0 0 1.4140625l2.1210937 2.1210937a1 1 0 0 0 1.4140625 0 1 1 0 0 0 0-1.4140625l-2.1210937-2.1210937a1 1 0 0 0 -1.4140625 0zm.706375.706375 2.121 2.121m.00075 10.31325a1 1 0 0 0 -.7070313.292969l-2.1210937 2.121093a1 1 0 0 0 0 1.414063 1 1 0 0 0 1.4140625 0l2.1210937-2.121094a1 1 0 0 0 0-1.414062 1 1 0 0 0 -.7070312-.292969zm-2.12175 3.12175 2.121-2.121m10.606219-.707781a1 1 0 0 0 0 1.414062l2.121093 2.121094a1 1 0 0 0 1.414063 0 1 1 0 0 0 0-1.414063l-2.121094-2.121093a1 1 0 0 0 -1.414062 0zm2.828781 2.828781-2.121-2.121m2.120344-14.4343437a1 1 0 0 0 -.707032.2929687l-2.121093 2.1210937a1 1 0 0 0 0 1.4140625 1 1 0 0 0 1.414062 0l2.121094-2.1210937a1 1 0 0 0 0-1.4160156 1 1 0 0 0 -.707031-.2910156zm.000656.9991437-2.121 2.1213m2.343 4.6569a1 1 0 0 0 -1 1 1 1 0 0 0 1 1h3a1 1 0 0 0 1-1 1 1 0 0 0 -1-1zm3 1h-3m-8-12a1 1 0 0 0 -1 1v3a1 1 0 0 0 1 1 1 1 0 0 0 1-1v-3a1 1 0 0 0 -1-1zm0 1v3"/><circle cx="12" cy="12" r="5"/></g></svg>